<?xml version="1.0" encoding="UTF-8" standalone="no"?>
<!DOCTYPE svg PUBLIC "-//W3C//DTD SVG 1.1//EN"
 "http://www.w3.org/Graphics/SVG/1.1/DTD/svg11.dtd">
<!-- Generated by graphviz version 2.47.0 (20210316.0004)
 -->
<!-- Title: dependencies Pages: 1 -->
<svg width="1052pt" height="298pt"
 viewBox="0.00 0.00 1052.00 298.00" xmlns="http://www.w3.org/2000/svg" xmlns:xlink="http://www.w3.org/1999/xlink">
<g id="graph0" class="graph" transform="scale(1 1) rotate(0) translate(4 294)">
<title>dependencies</title>
<polygon fill="white" stroke="transparent" points="-4,4 -4,-294 1048,-294 1048,4 -4,4"/>
<text text-anchor="start" x="501.01" y="-42.4" font-family="Times-12" font-weight="bold" font-size="14.00">Legend</text>
<polygon fill="#ffffb3" stroke="transparent" points="288,-10 288,-30 308,-30 308,-10 288,-10"/>
<text text-anchor="start" x="311.63" y="-15.4" font-family="Times-12" font-size="14.00"> &#160;Declarations</text>
<polygon fill="#8dd3c7" stroke="transparent" points="401,-10 401,-30 421,-30 421,-10 401,-10"/>
<text text-anchor="start" x="424.73" y="-15.4" font-family="Times-12" font-size="14.00"> &#160;Module</text>
<polygon fill="#80b1d3" stroke="transparent" points="487,-10 487,-30 507,-30 507,-10 487,-10"/>
<text text-anchor="start" x="510.78" y="-15.4" font-family="Times-12" font-size="14.00"> &#160;Bootstrap</text>
<polygon fill="#fdb462" stroke="transparent" points="584,-10 584,-30 604,-30 604,-10 584,-10"/>
<text text-anchor="start" x="607.67" y="-15.4" font-family="Times-12" font-size="14.00"> &#160;Providers</text>
<polygon fill="#fb8072" stroke="transparent" points="680,-10 680,-30 700,-30 700,-10 680,-10"/>
<text text-anchor="start" x="703.73" y="-15.4" font-family="Times-12" font-size="14.00"> &#160;Exports</text>
<g id="clust1" class="cluster">
<title>cluster_AppModule</title>
<polygon fill="none" stroke="black" stroke-dasharray="1,5" points="8,-146 8,-274 482,-274 482,-146 8,-146"/>
</g>
<g id="clust3" class="cluster">
<title>cluster_AppModule_imports</title>
<polygon fill="none" stroke="black" points="154,-154 154,-206 474,-206 474,-154 154,-154"/>
</g>
<g id="clust6" class="cluster">
<title>cluster_AppModule_providers</title>
<polygon fill="none" stroke="black" points="16,-154 16,-206 146,-206 146,-154 16,-154"/>
</g>
<g id="clust7" class="cluster">
<title>cluster_AuthModule</title>
<polygon fill="none" stroke="black" stroke-dasharray="1,5" points="490,-214 490,-282 754,-282 754,-214 490,-214"/>
</g>
<g id="clust10" class="cluster">
<title>cluster_AuthModule_exports</title>
<polygon fill="none" stroke="black" points="640,-222 640,-274 746,-274 746,-222 640,-222"/>
</g>
<g id="clust12" class="cluster">
<title>cluster_AuthModule_providers</title>
<polygon fill="none" stroke="black" points="498,-222 498,-274 632,-274 632,-222 498,-222"/>
</g>
<g id="clust13" class="cluster">
<title>cluster_PostsModule</title>
<polygon fill="none" stroke="black" stroke-dasharray="1,5" points="131,-70 131,-138 283,-138 283,-70 131,-70"/>
</g>
<g id="clust18" class="cluster">
<title>cluster_PostsModule_providers</title>
<polygon fill="none" stroke="black" points="139,-78 139,-130 275,-130 275,-78 139,-78"/>
</g>
<g id="clust19" class="cluster">
<title>cluster_UsersModule</title>
<polygon fill="none" stroke="black" stroke-dasharray="1,5" points="762,-214 762,-282 1036,-282 1036,-214 762,-214"/>
</g>
<g id="clust22" class="cluster">
<title>cluster_UsersModule_exports</title>
<polygon fill="none" stroke="black" points="918,-222 918,-274 1028,-274 1028,-222 918,-222"/>
</g>
<g id="clust24" class="cluster">
<title>cluster_UsersModule_providers</title>
<polygon fill="none" stroke="black" points="770,-222 770,-274 910,-274 910,-222 770,-222"/>
</g>
<!-- AuthModule -->
<g id="node1" class="node">
<title>AuthModule</title>
<polygon fill="#8dd3c7" stroke="black" points="356.55,-198 353.55,-202 332.55,-202 329.55,-198 269.45,-198 269.45,-162 356.55,-162 356.55,-198"/>
<text text-anchor="middle" x="313" y="-175.8" font-family="Times,serif" font-size="14.00">AuthModule</text>
</g>
<!-- AppModule -->
<g id="node4" class="node">
<title>AppModule</title>
<polygon fill="#8dd3c7" stroke="black" points="301.66,-266 298.66,-270 277.66,-270 274.66,-266 218.34,-266 218.34,-230 301.66,-230 301.66,-266"/>
<text text-anchor="middle" x="260" y="-243.8" font-family="Times,serif" font-size="14.00">AppModule</text>
</g>
<!-- AuthModule&#45;&gt;AppModule -->
<g id="edge1" class="edge">
<title>AuthModule&#45;&gt;AppModule</title>
<path fill="none" stroke="black" d="M285.53,-198.22C285.53,-198.22 285.53,-219.73 285.53,-219.73"/>
<polygon fill="black" stroke="black" points="282.03,-219.73 285.53,-229.73 289.03,-219.73 282.03,-219.73"/>
</g>
<!-- AuthService  -->
<g id="node6" class="node">
<title>AuthService </title>
<polygon fill="#fb8072" stroke="black" points="737.98,-266 648.02,-266 648.02,-230 737.98,-230 737.98,-266"/>
<text text-anchor="middle" x="693" y="-243.8" font-family="Times,serif" font-size="14.00">AuthService </text>
</g>
<!-- AuthModule&#45;&gt;AuthService  -->
<g id="edge5" class="edge">
<title>AuthModule&#45;&gt;AuthService </title>
<path fill="none" stroke="black" stroke-dasharray="5,2" d="M320.14,-198.19C320.14,-206.28 320.14,-214 320.14,-214 320.14,-214 693,-214 693,-214 693,-214 693,-219.81 693,-219.81"/>
<polygon fill="black" stroke="black" points="689.5,-219.81 693,-229.81 696.5,-219.81 689.5,-219.81"/>
</g>
<!-- PostsModule -->
<g id="node2" class="node">
<title>PostsModule</title>
<polygon fill="#8dd3c7" stroke="black" points="251.61,-198 248.61,-202 227.61,-202 224.61,-198 162.39,-198 162.39,-162 251.61,-162 251.61,-198"/>
<text text-anchor="middle" x="207" y="-175.8" font-family="Times,serif" font-size="14.00">PostsModule</text>
</g>
<!-- PostsModule&#45;&gt;AppModule -->
<g id="edge2" class="edge">
<title>PostsModule&#45;&gt;AppModule</title>
<path fill="none" stroke="black" d="M234.86,-198.22C234.86,-198.22 234.86,-219.73 234.86,-219.73"/>
<polygon fill="black" stroke="black" points="231.36,-219.73 234.86,-229.73 238.36,-219.73 231.36,-219.73"/>
</g>
<!-- UsersModule -->
<g id="node3" class="node">
<title>UsersModule</title>
<polygon fill="#8dd3c7" stroke="black" points="465.92,-198 462.92,-202 441.92,-202 438.92,-198 374.08,-198 374.08,-162 465.92,-162 465.92,-198"/>
<text text-anchor="middle" x="420" y="-175.8" font-family="Times,serif" font-size="14.00">UsersModule</text>
</g>
<!-- UsersModule&#45;&gt;AppModule -->
<g id="edge3" class="edge">
<title>UsersModule&#45;&gt;AppModule</title>
<path fill="none" stroke="black" d="M420,-198.27C420,-216.56 420,-242 420,-242 420,-242 312.04,-242 312.04,-242"/>
<polygon fill="black" stroke="black" points="312.04,-238.5 302.04,-242 312.04,-245.5 312.04,-238.5"/>
</g>
<!-- UsersService  -->
<g id="node9" class="node">
<title>UsersService </title>
<polygon fill="#fb8072" stroke="black" points="1019.85,-266 926.15,-266 926.15,-230 1019.85,-230 1019.85,-266"/>
<text text-anchor="middle" x="973" y="-243.8" font-family="Times,serif" font-size="14.00">UsersService </text>
</g>
<!-- UsersModule&#45;&gt;UsersService  -->
<g id="edge8" class="edge">
<title>UsersModule&#45;&gt;UsersService </title>
<path fill="none" stroke="black" stroke-dasharray="5,2" d="M465.72,-174C598.22,-174 973,-174 973,-174 973,-174 973,-219.71 973,-219.71"/>
<polygon fill="black" stroke="black" points="969.5,-219.71 973,-229.71 976.5,-219.71 969.5,-219.71"/>
</g>
<!-- AppService -->
<g id="node5" class="node">
<title>AppService</title>
<ellipse fill="#fdb462" stroke="black" cx="81" cy="-180" rx="56.74" ry="18"/>
<text text-anchor="middle" x="81" y="-175.8" font-family="Times,serif" font-size="14.00">AppService</text>
</g>
<!-- AppService&#45;&gt;AppModule -->
<g id="edge4" class="edge">
<title>AppService&#45;&gt;AppModule</title>
<path fill="none" stroke="black" d="M81,-198.22C81,-218.37 81,-248 81,-248 81,-248 208.03,-248 208.03,-248"/>
<polygon fill="black" stroke="black" points="208.03,-251.5 218.03,-248 208.03,-244.5 208.03,-251.5"/>
</g>
<!-- AuthService -->
<g id="node7" class="node">
<title>AuthService</title>
<ellipse fill="#fdb462" stroke="black" cx="565" cy="-248" rx="59.11" ry="18"/>
<text text-anchor="middle" x="565" y="-243.8" font-family="Times,serif" font-size="14.00">AuthService</text>
</g>
<!-- AuthService&#45;&gt;AuthModule -->
<g id="edge6" class="edge">
<title>AuthService&#45;&gt;AuthModule</title>
<path fill="none" stroke="black" d="M509,-254C441.92,-254 338.46,-254 338.46,-254 338.46,-254 338.46,-208.29 338.46,-208.29"/>
<polygon fill="black" stroke="black" points="341.96,-208.29 338.46,-198.29 334.96,-208.29 341.96,-208.29"/>
</g>
<!-- PostsService -->
<g id="node8" class="node">
<title>PostsService</title>
<ellipse fill="#fdb462" stroke="black" cx="207" cy="-104" rx="60.27" ry="18"/>
<text text-anchor="middle" x="207" y="-99.8" font-family="Times,serif" font-size="14.00">PostsService</text>
</g>
<!-- PostsService&#45;&gt;PostsModule -->
<g id="edge7" class="edge">
<title>PostsService&#45;&gt;PostsModule</title>
<path fill="none" stroke="black" d="M207,-122.01C207,-122.01 207,-151.85 207,-151.85"/>
<polygon fill="black" stroke="black" points="203.5,-151.85 207,-161.85 210.5,-151.85 203.5,-151.85"/>
</g>
<!-- UsersService -->
<g id="node10" class="node">
<title>UsersService</title>
<ellipse fill="#fdb462" stroke="black" cx="840" cy="-248" rx="61.95" ry="18"/>
<text text-anchor="middle" x="840" y="-243.8" font-family="Times,serif" font-size="14.00">UsersService</text>
</g>
<!-- UsersService&#45;&gt;UsersModule -->
<g id="edge9" class="edge">
<title>UsersService&#45;&gt;UsersModule</title>
<path fill="none" stroke="black" d="M840,-229.73C840,-211.44 840,-186 840,-186 840,-186 475.75,-186 475.75,-186"/>
<polygon fill="black" stroke="black" points="475.75,-182.5 465.75,-186 475.75,-189.5 475.75,-182.5"/>
</g>
</g>
</svg>
